# xmcd
# Copyright (C) 1995-1998 Ti Kan
#
# Track frame offsets:
#       150
#       12652
#       51324
#       74378
#       98004
#       136773
#       159337
#       190379
#       210676
#       225029
#
# Disc length: 3510 seconds
#
# Revision: 0
# Processed by: cddbd v1.5.2PL0 Copyright (c) Steve Scherf et al.
# Submitted via: CD-Import v1.0
#
DISCID=7f0db40a
DTITLE=William White And The Emergency - Live Im Eisenwerk Frauenfeld
DYEAR=2008
DGENRE=
TTITLE0=Intro
TTITLE1=Take It Or Leave It/Sweet Love
TTITLE2=Evolution
TTITLE3=Mellowson
TTITLE4=Rain
TTITLE5=Can't Stop Loving You
TTITLE6=Try A Little Love
TTITLE7=Time To Make A Change
TTITLE8=Band Introduction
TTITLE9=All In All
EXTD=
EXTT0=
EXTT1=
EXTT2=
EXTT3=
EXTT4=
EXTT5=
EXTT6=
EXTT7=
EXTT8=
EXTT9=
PLAYORDER=
